<?xml version="1.0" encoding="utf-8"?>
<!-- Generator: Adobe Illustrator 26.0.0, SVG Export Plug-In . SVG Version: 6.00 Build 0)  -->
<svg version="1.1" id="Layer_1" xmlns="http://www.w3.org/2000/svg" xmlns:xlink="http://www.w3.org/1999/xlink" x="0px" y="0px"
	 viewBox="0 0 4000 1086.86" style="enable-background:new 0 0 4000 1086.86;" xml:space="preserve">
<style type="text/css">
	.st0{fill:#5CA697;}
</style>
<g>
	<g>
		<path class="st0" d="M594.36,267.18c22.84,0,50.24,3.43,69.66,12.56c-1.14,35.4-2.28,71.94-2.28,108.48s1.14,71.94,2.28,108.48
			c-43.39,0-77.65,1.14-118.76,3.43c-5.71-21.7-10.28-43.39-15.99-65.09c-43.39,0-71.94,20.55-71.94,67.37v190.7l67.37,17.13
			c4.57,33.11,5.71,78.79,5.71,129.03c-50.24-2.28-100.49-3.43-149.59-3.43c-50.24,0-100.49,1.14-150.73,3.43
			c0-50.24,1.14-90.21,5.71-129.03l50.24-17.13V424.76c-17.13-4.57-34.26-10.28-51.39-14.85c-2.28-44.53-4.57-79.93-4.57-131.32
			h55.95c63.95,0,125.61-4.57,163.29-7.99v66.23C469.89,298.02,525.84,267.18,594.36,267.18z"/>
		<path class="st0" d="M706.25,556.09c0-171.29,138.17-288.9,306.03-288.9c177,0,307.17,123.33,307.17,288.9
			c0,166.72-127.89,290.04-303.75,290.04C844.42,846.13,706.25,731.94,706.25,556.09z M1013.42,425.91
			c-77.65,0-131.32,53.67-131.32,131.32c0,78.79,52.53,130.18,132.46,130.18s129.04-44.53,129.04-131.32
			C1143.6,473.87,1092.21,425.91,1013.42,425.91z"/>
		<path class="st0" d="M1730.52,462.45c-6.85-21.7-11.42-42.25-17.13-63.95c-14.85-2.28-43.39-5.71-67.37-5.71
			c-50.24,0-76.51,5.71-76.51,37.68c0,23.98,19.41,39.97,75.37,52.53c102.77,21.7,230.66,49.1,230.66,191.84
			c0,103.91-97.06,171.29-246.65,171.29c-95.92,0-140.45-4.57-229.52-14.84c1.14-29.69,2.28-60.52,2.28-90.21
			s-1.14-59.38-2.28-90.21c47.96,0,94.78-1.14,125.61-3.42l15.99,60.52c19.41,1.14,49.1,2.28,68.51,2.28
			c27.41,0,90.21,3.42,90.21-37.68c0-33.12-37.68-43.39-113.05-59.38c-78.79-17.13-192.98-51.39-192.98-179.28
			c0-113.05,102.77-166.72,248.94-166.72c76.51,0,151.87,7.99,205.54,17.13v174.71C1802.46,459.02,1772.77,460.17,1730.52,462.45z"
			/>
		<path class="st0" d="M2146.16,585.78l163.29-175.85c-22.84,0-59.38-5.71-77.65-11.42c-2.28-46.82-3.43-79.93-3.43-127.89
			c35.4,4.57,78.79,7.99,182.7,7.99h151.87c0,51.39-2.28,86.78-4.57,131.32c-28.55,4.57-55.95,10.28-83.36,14.85l-102.77,113.05
			l94.78,155.3l87.93,17.13c5.71,46.82,5.71,78.79,5.71,129.03c-44.53,3.43-95.92,9.13-153.01,17.13L2267.2,646.31l-121.04,125.61
			v67.37c-36.54-2.28-73.08-3.43-109.62-3.43c-37.68,0-74.22,1.14-110.76,3.43c0-50.24,1.14-82.22,5.71-129.03l50.24-17.13V153.01
			l-51.39-17.13c-2.28-27.41-4.57-69.66-4.57-121.04h55.95c54.81-1.14,109.62-5.71,164.43-14.84v585.78H2146.16z"/>
		<path class="st0" d="M2616.62,278.6c74.22,0,170.14-3.43,222.67-7.99v422.5l51.39,17.13c4.57,46.82,5.71,78.79,5.71,129.03
			c-46.82-2.28-93.64-3.43-140.45-3.43c-45.68,0-92.49,1.14-139.31,3.43c0-50.24,1.14-82.22,5.71-129.03l49.1-17.13V424.76
			c-15.99-4.57-33.12-10.28-50.24-14.85C2618.9,365.39,2616.62,329.99,2616.62,278.6z M2850.71,124.45
			c0,55.95-47.96,102.77-103.91,102.77c-58.24,0-105.06-41.11-105.06-101.63c0-61.66,45.68-102.77,105.06-102.77
			C2803.89,22.82,2850.71,68.49,2850.71,124.45z"/>
		<path class="st0" d="M3250.36,701.11c59.38,0,106.2-13.7,151.87-47.96c26.26,41.11,53.67,74.22,82.22,102.77
			c-61.66,57.09-131.32,90.21-247.79,90.21c-176.99,0-291.19-115.33-291.19-291.19c0-164.43,119.9-287.76,291.19-287.76
			c156.44,0,267.2,114.19,267.2,282.05c0,21.7-2.28,38.83-7.99,62.8h-382.54C3133.89,672.56,3188.7,701.11,3250.36,701.11z
			 M3235.52,413.35c-91.35,0-124.47,54.81-124.47,83.36h234.09C3342.85,459.02,3307.45,413.35,3235.52,413.35z"/>
		<path class="st0" d="M3769.91,739.93c0,54.81-45.68,99.35-101.63,99.35s-101.63-44.53-101.63-99.35
			c0-54.81,45.68-99.35,101.63-99.35C3724.23,640.59,3769.91,685.12,3769.91,739.93z M3581.5,568.65V6.83h174.71v561.82H3581.5z"/>
	</g>
	<g>
		<path class="st0" d="M2894.59,969.55c-0.37-7.44-0.74-11.34-0.74-19.71c17.29-0.19,25.47-0.93,35.89-2.42v52.62
			c5.76-5.76,15.06-9.11,28.26-9.11c28.64,0,45.74,18.78,45.74,47.42c0,28.45-18.97,46.86-46.12,46.86
			c-12.27,0-21.57-3.35-27.89-11.34v12.83c-9.3-1.49-17.48-2.42-35.89-2.6c0-8.18,0.19-13.39,0.93-21.01l8.18-2.79v-87.95
			L2894.59,969.55z M2952.8,1015.29c-7.07,0-12.64,2.42-16.55,6.69c-3.53,4.09-5.58,9.86-5.58,16.74c0,5.95,1.67,10.78,4.65,14.5
			c4.09,4.83,10.41,7.62,17.48,7.62c13.2,0,23.06-6.88,23.06-22.5C2975.85,1022.91,2965.63,1015.29,2952.8,1015.29z"/>
		<path class="st0" d="M3016.02,1037.98c0-27.89,22.5-47.04,49.83-47.04c28.82,0,50.02,20.08,50.02,47.04
			c0,27.15-20.83,47.23-49.46,47.23C3038.52,1085.21,3016.02,1066.61,3016.02,1037.98z M3066.04,1016.78
			c-12.64,0-21.38,8.74-21.38,21.38c0,12.83,8.55,21.2,21.57,21.2s21.01-7.25,21.01-21.38
			C3087.23,1024.59,3078.87,1016.78,3066.04,1016.78z"/>
		<path class="st0" d="M3127.95,1037.98c0-27.89,22.5-47.04,49.83-47.04c28.82,0,50.02,20.08,50.02,47.04
			c0,27.15-20.83,47.23-49.46,47.23C3150.45,1085.21,3127.95,1066.61,3127.95,1037.98z M3177.97,1016.78
			c-12.64,0-21.38,8.74-21.38,21.38c0,12.83,8.55,21.2,21.57,21.2s21.01-7.25,21.01-21.38
			C3199.17,1024.59,3190.8,1016.78,3177.97,1016.78z"/>
		<path class="st0" d="M3271.88,1042.81l26.59-28.64c-3.72,0-9.67-0.93-12.64-1.86c-0.37-7.62-0.56-13.02-0.56-20.83
			c5.76,0.74,12.83,1.3,29.75,1.3h24.73c0,8.37-0.37,14.13-0.74,21.38c-4.65,0.74-9.11,1.67-13.57,2.42l-16.74,18.41l15.43,25.29
			l14.32,2.79c0.93,7.62,0.93,12.83,0.93,21.01c-7.25,0.56-15.62,1.49-24.92,2.79l-22.87-34.21l-19.71,20.45v10.97
			c-5.95-0.37-11.9-0.56-17.85-0.56c-6.14,0-12.09,0.19-18.04,0.56c0-8.18,0.19-13.39,0.93-21.01l8.18-2.79v-87.95l-8.37-2.79
			c-0.37-4.46-0.74-11.34-0.74-19.71h9.11c8.93-0.19,17.85-0.93,26.78-2.42L3271.88,1042.81L3271.88,1042.81z"/>
		<path class="st0" d="M3481.44,1007.85c-0.19,2.98-0.19,5.95-0.19,8.93s0,5.95,0.19,8.93c-7.62,0-13.95,0-21.01,0.56
			c-0.93-2.98-1.67-5.95-2.42-8.93c-3.72-1.67-9.48-2.05-13.39-2.05c-13.02,0-21.01,9.48-21.01,23.24c0,14.13,9.48,22.5,22.87,22.5
			c9.3,0,16.36-2.05,23.43-7.25c4.28,6.69,8.74,12.09,13.39,16.74c-10.04,9.3-21.38,14.69-40.35,14.69
			c-28.82,0-47.42-18.78-47.42-45.56c0-29.01,18.78-48.72,47.97-48.72C3461.17,990.93,3472.51,996.14,3481.44,1007.85
			L3481.44,1007.85z"/>
		<path class="st0" d="M3517.51,1085.21c-14.32,0-21.57-10.23-21.57-30.31v-82.56l-8.37-2.79c-0.37-6.14-0.74-11.34-0.74-19.71h9.11
			c9.11-0.37,18.22-1.3,27.33-2.42v106.18c0,4.28,1.3,5.95,3.91,5.95c1.67,0,2.79-0.37,3.9-0.93c1.3,7.81,3.16,15.06,5.39,21.94
			C3530.53,1083.72,3524.21,1085.21,3517.51,1085.21z"/>
		<path class="st0" d="M3640.8,1060.29l8.18,2.79c0.93,5.02,0.93,12.83,0.93,21.01c-13.57,0.37-27.15,1.49-36.45,2.79v-10.97
			c-6.88,5.95-16.92,9.3-25.66,9.3c-28.82,0-42.02-19.52-42.02-45.74c0-7.07,0.19-15.25,0.56-22.87c-2.23-0.74-4.46-1.67-6.69-2.42
			c-0.37-5.21-0.74-13.02-0.74-21.38c15.43,0,26.59-0.37,36.82-1.86c-1.3,14.5-2.6,29.19-2.6,45.74c0,15.99,7.07,23.43,20.83,23.43
			c14.32,0,19.52-11.34,19.52-30.12V992.8h27.33v67.49H3640.8z"/>
		<path class="st0" d="M3658.46,969.55c-0.37-7.44-0.74-11.34-0.74-19.71c17.29-0.19,25.47-0.93,35.89-2.42v52.62
			c5.76-5.76,15.06-9.11,28.26-9.11c28.64,0,45.74,18.78,45.74,47.42c0,28.45-18.97,46.86-46.11,46.86
			c-12.27,0-21.57-3.35-27.89-11.34v12.83c-9.3-1.49-17.48-2.42-35.89-2.6c0-8.18,0.19-13.39,0.93-21.01l8.18-2.79v-87.95
			L3658.46,969.55z M3716.66,1015.29c-7.07,0-12.64,2.42-16.55,6.69c-3.53,4.09-5.58,9.86-5.58,16.74c0,5.95,1.67,10.78,4.65,14.5
			c4.09,4.83,10.41,7.62,17.48,7.62c13.2,0,23.06-6.88,23.06-22.5C3739.72,1022.91,3729.49,1015.29,3716.66,1015.29z"/>
	</g>
</g>
</svg>
